<svg width="55" height="50" viewBox="0 0 55 50" fill="none" xmlns="http://www.w3.org/2000/svg">
<path d="M39.2744 48.5876C39.3972 48.5532 39.4655 48.534 39.6631 48.534H39.6635C42.4902 48.535 45.2456 47.6465 47.5391 45.9943C49.8328 44.342 51.5483 42.0098 52.4425 39.3281C53.3367 36.6464 53.3642 33.7513 52.5212 31.0531C51.8036 28.7562 50.486 26.7011 48.7147 25.0946C50.4853 23.4876 51.802 21.4324 52.5192 19.1356C53.3616 16.4375 53.3339 13.5427 52.44 10.8612L51.4913 11.1775L52.44 10.8612C51.546 8.17975 49.8311 5.84748 47.5381 4.19469C45.2451 2.54191 42.4902 1.65238 39.6636 1.65209L39.6583 1.65211L1.9948 1.84812L1 1.8533V2.84811V47.73V48.73H2H38.2199C38.7274 48.73 39.0084 48.6616 39.2464 48.5954C39.2561 48.5927 39.2654 48.5901 39.2744 48.5876Z" fill="white" stroke="black" stroke-width="2" stroke-miterlimit="10"/>
</svg>
