<?xml version="1.0" encoding="UTF-8"?> <!-- Generator: Adobe Illustrator 24.0.3, SVG Export Plug-In . SVG Version: 6.00 Build 0) --> <svg xmlns="http://www.w3.org/2000/svg" xmlns:xlink="http://www.w3.org/1999/xlink" version="1.1" id="Layer_1" x="0px" y="0px" viewBox="0 0 432 144" style="enable-background:new 0 0 432 144;" xml:space="preserve"> <style type="text/css"> .st0{fill:#EBA900;} .st1{fill:#CE0E2D;} .st2{fill:#007CBA;} .st3{fill:#102D4E;} </style> <g> <g> <polygon class="st0" points="59.27,15.93 46.99,15.93 46.99,43.81 46.99,64.91 96.12,64.91 96.12,52.5 67.96,52.5 87.87,32.58 79.19,23.89 59.27,43.81 "></polygon> <polygon class="st1" points="10.14,64.91 38.31,64.91 59.29,64.91 59.29,43.93 59.28,43.94 59.28,15.77 46.99,15.77 46.99,43.94 27.08,24.02 18.39,32.71 38.31,52.62 10.14,52.62 "></polygon> </g> <polygon class="st2" points="46.99,127.87 59.28,127.87 59.28,99.98 59.28,78.89 10.14,78.89 10.14,91.3 38.31,91.3 18.39,111.21 27.08,119.9 46.99,99.98 "></polygon> <polygon class="st3" points="96.12,78.89 67.96,78.89 46.98,78.89 46.98,99.86 46.99,99.86 46.99,128.02 59.27,128.02 59.27,99.86 79.19,119.77 87.87,111.09 67.96,91.17 96.12,91.17 "></polygon> <g> <g> <path class="st3" d="M131.62,33.63l1.39-1.44c0.7,0.91,1.4,1.42,2.42,1.42c1.13,0,1.9-0.75,1.9-2.37V23.4h2.18v7.92 c0,1.42-0.43,2.48-1.13,3.19s-1.71,1.06-2.91,1.06C133.61,35.56,132.41,34.71,131.62,33.63z"></path> <path class="st3" d="M144.89,30.3V23.4H147v6.82c0,2.23,1.15,3.41,3.03,3.41c1.87,0,3.02-1.11,3.02-3.33V23.4h2.11v6.8 c0,3.58-2.02,5.38-5.16,5.38C146.88,35.58,144.89,33.78,144.89,30.3z"></path> <path class="st3" d="M159.68,33.64l1.27-1.51c1.15,0.99,2.31,1.56,3.79,1.56c1.3,0,2.12-0.62,2.12-1.51v-0.03 c0-0.86-0.48-1.32-2.71-1.83c-2.55-0.62-3.99-1.37-3.99-3.58V26.7c0-2.06,1.71-3.48,4.1-3.48c1.75,0,3.14,0.53,4.35,1.51 l-1.13,1.59c-1.08-0.81-2.16-1.23-3.26-1.23c-1.23,0-1.95,0.63-1.95,1.42v0.03c0,0.93,0.55,1.34,2.86,1.88 c2.54,0.62,3.84,1.53,3.84,3.51v0.03c0,2.25-1.77,3.58-4.28,3.58C162.85,35.56,161.12,34.93,159.68,33.64z"></path> <path class="st3" d="M176.78,25.35h-3.81V23.4h9.73v1.95h-3.8v10.04h-2.13V25.35z"></path> <path class="st3" d="M187.27,23.4h2.11v12h-2.11V23.4z"></path> <path class="st3" d="M194.48,29.43v-0.03c0-3.41,2.55-6.2,6.19-6.2c2.21,0,3.55,0.77,4.7,1.87l-1.35,1.56 c-0.96-0.89-1.99-1.49-3.36-1.49c-2.28,0-3.96,1.88-3.96,4.23v0.03c0,2.35,1.66,4.25,3.96,4.25c1.47,0,2.42-0.58,3.44-1.54 l1.35,1.37c-1.25,1.3-2.62,2.13-4.87,2.13C197.09,35.6,194.48,32.87,194.48,29.43z"></path> <path class="st3" d="M210.03,23.4h8.89v1.89h-6.79v3.12h6.02v1.89h-6.02v3.22h6.87v1.88h-8.98V23.4z"></path> <path class="st3" d="M238.98,23.4h8.93v1.92h-6.82v3.27h6.05v1.92h-6.05v4.88h-2.11V23.4z"></path> <path class="st3" d="M255.82,23.31h1.95l5.28,12.08h-2.23l-1.22-2.9h-5.67l-1.23,2.9h-2.16L255.82,23.31z M258.83,30.63 l-2.07-4.8l-2.06,4.8H258.83z"></path> <path class="st3" d="M267.53,23.4h2.11v12h-2.11V23.4z"></path> <path class="st3" d="M275.32,23.4h5.35c1.51,0,2.69,0.45,3.46,1.2c0.64,0.65,0.99,1.54,0.99,2.59v0.03 c0,1.97-1.18,3.15-2.85,3.63l3.24,4.54h-2.5l-2.95-4.18h-2.64v4.18h-2.11V23.4z M280.51,29.34c1.51,0,2.47-0.79,2.47-2.01V27.3 c0-1.29-0.92-1.99-2.48-1.99h-3.07v4.03H280.51z"></path> <path class="st3" d="M290.22,23.4h1.95l6.43,8.29V23.4h2.07v12h-1.76l-6.62-8.54v8.54h-2.07V23.4z"></path> <path class="st3" d="M306.32,23.4h8.9v1.89h-6.79v3.12h6.02v1.89h-6.02v3.22h6.87v1.88h-8.98V23.4z"></path> <path class="st3" d="M319.54,33.64l1.27-1.51c1.15,0.99,2.31,1.56,3.79,1.56c1.3,0,2.12-0.62,2.12-1.51v-0.03 c0-0.86-0.48-1.32-2.71-1.83c-2.55-0.62-3.99-1.37-3.99-3.58V26.7c0-2.06,1.71-3.48,4.1-3.48c1.75,0,3.14,0.53,4.35,1.51 l-1.13,1.59c-1.08-0.81-2.16-1.23-3.26-1.23c-1.23,0-1.95,0.63-1.95,1.42v0.03c0,0.93,0.55,1.34,2.86,1.88 c2.54,0.62,3.84,1.53,3.84,3.51v0.03c0,2.25-1.77,3.58-4.28,3.58C322.71,35.56,320.98,34.93,319.54,33.64z"></path> <path class="st3" d="M332.92,33.64l1.27-1.51c1.15,0.99,2.31,1.56,3.79,1.56c1.3,0,2.12-0.62,2.12-1.51v-0.03 c0-0.86-0.48-1.32-2.71-1.83c-2.55-0.62-3.99-1.37-3.99-3.58V26.7c0-2.06,1.71-3.48,4.1-3.48c1.75,0,3.14,0.53,4.35,1.51 l-1.13,1.59c-1.08-0.81-2.16-1.23-3.26-1.23c-1.23,0-1.95,0.63-1.95,1.42v0.03c0,0.93,0.55,1.34,2.86,1.88 c2.54,0.62,3.84,1.53,3.84,3.51v0.03c0,2.25-1.77,3.58-4.28,3.58C336.09,35.56,334.36,34.93,332.92,33.64z"></path> <path class="st3" d="M362.16,23.4h2.11v4.99h5.72V23.4h2.11v12h-2.11v-5.06h-5.72v5.06h-2.11V23.4z"></path> <path class="st3" d="M377.14,29.43v-0.03c0-3.38,2.6-6.2,6.29-6.2c3.68,0,6.25,2.79,6.25,6.17v0.03c0,3.38-2.61,6.2-6.29,6.2 C379.71,35.6,377.14,32.81,377.14,29.43z M387.47,29.43v-0.03c0-2.33-1.7-4.27-4.08-4.27c-2.38,0-4.04,1.9-4.04,4.23v0.03 c0,2.33,1.7,4.25,4.08,4.25C385.81,33.64,387.47,31.76,387.47,29.43z"></path> <path class="st3" d="M394.73,23.4h4.73c2.81,0,4.56,1.59,4.56,4.01v0.03c0,2.69-2.16,4.1-4.8,4.1h-2.38v3.86h-2.11V23.4z M399.29,29.63c1.59,0,2.59-0.89,2.59-2.14v-0.03c0-1.4-1.01-2.14-2.59-2.14h-2.45v4.32H399.29z"></path> <path class="st3" d="M408.58,23.4h8.9v1.89h-6.79v3.12h6.02v1.89h-6.02v3.22h6.87v1.88h-8.98V23.4z"></path> </g> <g> <path class="st3" d="M153.96,78.72c0,0.34,0,0.39-0.34,0.39c-2.71,0-15.66,0-18.2,0c-0.39,0-0.39,0.04-0.39-0.39 c0-5.33,0-9.72,0-14.15c0-4.78,0-8.9,0-14.24c0-0.43,0-0.39,0.39-0.39c2.54,0,4.3,0,6.97,0c0.34,0,0.39,0.04,0.39,0.39 c0,4.52,0,21.94,0,21.94l10.8-0.22c0.34,0,0.39,0.09,0.39,0.43C153.96,74.16,153.96,75.37,153.96,78.72z"></path> <path class="st3" d="M176.55,66.64c0,1.51-0.09,2.19-0.26,2.92c-0.09,0.43-0.22,0.52-0.86,0.52c-3.74,0-12.86,0-12.86,0 c0.04,2.32,1.85,3.79,4.39,3.79c2.02,0,3.4-1.29,4.13-2.15c0.13-0.17,0.39-0.09,0.6,0.22c0.9,1.25,2.11,2.97,2.97,4.3 c0.26,0.39,0.13,0.69-0.21,0.99c-1.33,1.16-4.3,2.54-7.61,2.54c-6.54,0-11.31-4.3-11.31-11.61c0-6.54,4.34-11.31,11.31-11.31 C172.12,56.83,176.55,60.57,176.55,66.64z M169.84,66.29c-0.17-2.28-1.46-3.66-3.66-3.66c-2.37,0-3.4,1.85-3.61,3.66H169.84z"></path> <path class="st3" d="M201.46,72.06c0,11.31-3.48,15.49-11.92,15.49c-2.58,0-6.24-1.12-8.35-2.15c-0.65-0.34-0.82-0.3-0.65-0.77 c0.26-0.77,1.59-3.91,1.98-5.12c0.17-0.47,0.26-0.52,0.69-0.26c1.16,0.73,3.79,1.89,5.72,1.89c4.09,0,5.38-1.59,5.38-5.64 c-1.25,1.81-3.4,2.67-5.98,2.67c-5.68,0-9.85-3.48-9.85-10.45c0-6.67,4.17-10.58,9.89-10.58c2.15,0,5.03,0.9,5.94,2.32V57.9 c0-0.52,0.09-0.52,0.39-0.52c2.58,0,3.83,0,6.41,0c0.34,0,0.34,0.3,0.34,0.52V72.06z M185.63,68.18c0,2.5,1.94,4.3,4.34,4.3 c2.37,0,4.35-1.63,4.35-4.3c0-2.67-1.98-4.43-4.35-4.43C187.56,63.75,185.63,65.6,185.63,68.18z"></path> <path class="st3" d="M219.83,76.01c-0.73,2.24-3.44,3.4-6.07,3.4c-5.76,0-10.15-4.13-10.15-11.18c0-6.5,4.56-11.1,10.02-11.1 c2.93,0,5.16,1.72,5.81,3.4V57.9c0-0.39,0.09-0.52,0.34-0.52c2.45,0,4.17,0,6.62,0c0.22,0,0.3,0.17,0.3,0.39 c0,8.26,0,12.82,0,20.73c0,0.47-0.13,0.6-0.34,0.6c-1.16,0-5.42,0-6.11,0c-0.3,0-0.43-0.17-0.43-0.39V76.01z M210.76,68.44 c0,2.62,1.98,4.43,4.39,4.43c2.37,0,4.3-1.81,4.3-4.52c0-2.84-1.94-4.52-4.3-4.52C212.43,63.84,210.76,65.77,210.76,68.44z"></path> <path class="st3" d="M237.47,78.64c0,0.39-0.09,0.47-0.34,0.47c-2.37,0-4.09,0-6.63,0c-0.3,0-0.34,0-0.34-0.6 c0-7.91,0-20.69,0-28.61c0-0.52,0-0.56,0.34-0.56c2.45,0,4.17,0,6.58,0c0.3,0,0.39,0.04,0.39,0.56V78.64z"></path> <path class="st3" d="M250.99,72.44l5.29-2.15c0.39-0.13,0.39-0.13,0.47,0.21c0.52,1.59,2.49,3.48,5.2,3.48 c2.97,0,4.34-0.9,4.34-2.88c0-1.76-1.25-2.88-5.2-3.36c-0.3-0.04-0.73-0.09-1.03-0.13c-5.2-0.52-8.82-3.44-8.82-8.78 c0-5.59,3.83-9.51,11.44-9.51c5.72,0,9.25,2.71,10.37,6.32c0.13,0.47-0.04,0.65-0.3,0.73l-5.03,2.02 c-0.3,0.13-0.43,0.04-0.52-0.17c-0.6-1.72-2.58-3.4-4.82-3.4c-3.01,0-3.96,1.12-3.96,2.71c0,1.98,1.59,2.8,5.46,3.44 c0.39,0.04,0.86,0.13,1.42,0.22c5.51,0.77,8.69,3.7,8.69,9.08c0,6.62-5.46,9.55-12.22,9.55c-5.85,0-9.51-2.37-10.97-6.58 C250.64,72.79,250.69,72.57,250.99,72.44z"></path> <path class="st3" d="M296.93,66.64c0,1.51-0.09,2.19-0.26,2.92c-0.08,0.43-0.21,0.52-0.86,0.52c-3.74,0-12.86,0-12.86,0 c0.04,2.32,1.85,3.79,4.39,3.79c2.02,0,3.4-1.29,4.13-2.15c0.13-0.17,0.39-0.09,0.6,0.22c0.9,1.25,2.11,2.97,2.97,4.3 c0.26,0.39,0.13,0.69-0.22,0.99c-1.33,1.16-4.3,2.54-7.61,2.54c-6.54,0-11.31-4.3-11.31-11.61c0-6.54,4.34-11.31,11.31-11.31 C292.5,56.83,296.93,60.57,296.93,66.64z M290.22,66.29c-0.17-2.28-1.46-3.66-3.66-3.66c-2.37,0-3.4,1.85-3.61,3.66H290.22z"></path> <path class="st3" d="M306.62,65.43v13.21c0,0.39-0.09,0.47-0.34,0.47c-2.37,0-4.09,0-6.63,0c-0.3,0-0.34,0-0.34-0.6 c0-7.91,0-12.65,0-20.61c0-0.52,0-0.52,0.34-0.52c2.45,0,4,0,6.41,0c0.3,0,0.34,0,0.34,0.52v2.11c0.9-2.15,3.27-3.27,5.16-3.27 c3.18,0,5.42,1.76,5.51,5.21c-0.9,0.9-3.96,4.09-4.47,4.56c-0.22,0.22-0.65,0.26-1.08,0.26c0-1.94-0.82-2.97-2.37-2.97 C307.82,63.8,307.13,64.66,306.62,65.43z"></path> <path class="st3" d="M330.41,79.45c-0.3,0.6-1.08,0.56-1.38-0.04c-3.66-7.14-6.54-12.82-10.75-21.34 c-0.39-0.69-0.26-0.69,0.17-0.69h7.44c0.21,0,0.39,0,0.47,0.3c1.89,5.16,3.57,9.81,3.57,9.81s1.81-4.73,3.4-9.68 c0.09-0.26,0.22-0.43,0.43-0.43h7.23c0.39,0,0.43,0,0.17,0.6C336.73,66.85,334.19,72.01,330.41,79.45z"></path> <path class="st3" d="M351.15,54.46c0,0.39-0.09,0.47-0.39,0.47c-2.41,0-4.09,0-6.58,0c-0.3,0-0.34-0.3-0.34-0.56V49.9 c0-0.26,0-0.56,0.3-0.56c2.19,0,4.69,0,6.58,0c0.34,0,0.43,0.04,0.43,0.56V54.46z M351.15,78.64c0,0.39-0.09,0.47-0.39,0.47 c-2.36,0-4.09,0-6.58,0c-0.3,0-0.34,0-0.34-0.6c0-7.91,0-12.65,0-20.61c0-0.52,0-0.52,0.3-0.52c2.45,0,4.17,0,6.58,0 c0.34,0,0.43,0,0.43,0.52V78.64z"></path> <path class="st3" d="M375.54,72.87c0.3,0.17,0.39,0.43,0.26,0.73c-1.89,3.91-5.12,6.24-10.11,6.24 c-6.75,0-11.53-4.39-11.53-11.36c0-6.62,4.56-11.74,11.44-11.74c4.73,0,8.56,2.15,10.15,6.41c0.13,0.34,0.04,0.52-0.26,0.65 l-5.64,2.37c-0.17,0.04-0.26-0.04-0.34-0.26c-0.56-1.25-2.19-2.06-3.79-2.06c-2.84,0-4.43,1.94-4.43,4.56 c0,2.71,1.94,4.47,4.47,4.47c1.76,0,3.18-0.99,3.7-2.11c0.13-0.3,0.26-0.39,0.64-0.22L375.54,72.87z"></path> <path class="st3" d="M398.6,66.64c0,1.51-0.09,2.19-0.26,2.92c-0.08,0.43-0.21,0.52-0.86,0.52c-3.74,0-12.86,0-12.86,0 c0.04,2.32,1.85,3.79,4.39,3.79c2.02,0,3.4-1.29,4.13-2.15c0.13-0.17,0.39-0.09,0.6,0.22c0.9,1.25,2.11,2.97,2.97,4.3 c0.26,0.39,0.13,0.69-0.22,0.99c-1.33,1.16-4.3,2.54-7.61,2.54c-6.54,0-11.31-4.3-11.31-11.61c0-6.54,4.34-11.31,11.31-11.31 C394.17,56.83,398.6,60.57,398.6,66.64z M391.89,66.29c-0.17-2.28-1.46-3.66-3.66-3.66c-2.37,0-3.4,1.85-3.61,3.66H391.89z"></path> <path class="st3" d="M400.67,74.21l4.69-1.81c0.17-0.04,0.34,0.04,0.39,0.17c0.47,1.29,1.89,2.32,3.48,2.32 c1.94,0,2.8-0.77,2.8-1.72c0-1.16-0.9-1.76-4.22-2.58c-4.09-1.03-6.93-2.5-6.93-6.8c0-4.52,3.7-7.05,9.68-7.05 c4.77,0,7.61,1.81,8.47,4.65c0.04,0.26,0.04,0.52-0.21,0.6l-4.78,1.68c-0.26,0.13-0.3,0.13-0.47-0.13 c-0.73-1.16-1.85-1.94-3.27-1.94c-1.68,0-2.41,0.56-2.41,1.51c0,0.86,0.99,1.29,4.69,2.02c4.3,0.9,7.27,2.71,7.27,6.75 c0,4.82-3.61,8-9.89,8c-5.46,0-8.04-1.98-9.42-5.03C400.46,74.55,400.46,74.29,400.67,74.21z"></path> <path class="st3" d="M141.36,119.19c-0.52,1.2-1.08,2.67-1.51,3.7c-0.13,0.34-0.21,0.47-0.77,0.47c-2.84,0-4.3,0-7.14,0 c-0.34,0-0.39-0.17-0.21-0.6c4.47-9.51,10.71-22.2,14.63-29.51c0.04-0.13,0.99-0.08,1.03,0c4.13,8.05,9.98,20,14.71,29.51 c0.26,0.56,0.22,0.6-0.17,0.6c-2.06,0-4.73,0-8.04,0c-0.22,0-0.39-0.04-0.52-0.34c-0.52-1.16-1.16-2.75-1.59-3.83H141.36z M149.48,113.6l-3.05-6.54l-2.93,6.54H149.48z"></path> <path class="st3" d="M171.17,122.89c0,0.39-0.09,0.47-0.34,0.47c-2.37,0-4.09,0-6.62,0c-0.3,0-0.34,0-0.34-0.6 c0-7.91,0-20.69,0-28.61c0-0.52,0-0.56,0.34-0.56c2.45,0,4.17,0,6.58,0c0.3,0,0.39,0.04,0.39,0.56V122.89z"></path> <path class="st3" d="M190.4,120.27c-0.73,2.24-3.44,3.4-6.07,3.4c-5.76,0-10.15-4.13-10.15-11.19c0-6.5,4.56-11.1,10.02-11.1 c2.93,0,5.16,1.72,5.81,3.4v-2.62c0-0.39,0.09-0.52,0.34-0.52c2.45,0,4.17,0,6.62,0c0.22,0,0.3,0.17,0.3,0.39 c0,8.26,0,12.82,0,20.73c0,0.47-0.13,0.6-0.34,0.6c-1.16,0-5.42,0-6.11,0c-0.3,0-0.43-0.17-0.43-0.39V120.27z M181.33,112.7 c0,2.62,1.98,4.43,4.39,4.43c2.37,0,4.3-1.81,4.3-4.52c0-2.84-1.94-4.52-4.3-4.52C183,108.09,181.33,110.03,181.33,112.7z"></path> <path class="st3" d="M207.83,104.4c0.77-1.76,3.14-3.01,5.85-3.01c5.85,0,10.15,4.13,10.15,11.1c0,6.58-3.79,11.19-9.85,11.19 c-2.54,0-5.03-0.99-6.24-2.84l-0.47,2.06c-0.09,0.39-0.47,0.52-0.95,0.52c-2.54,0-2.67,0-5.25,0c-0.34,0-0.34-0.04-0.34-0.56 c0-7.91,0-20.74,0-28.65c0-0.6,0.04-0.6,0.34-0.6c2.67,0,3.91,0,6.41,0c0.3,0,0.34,0.09,0.34,0.56V104.4z M208.04,112.61 c0,2.71,1.89,4.52,4.3,4.52c2.37,0,4.35-1.81,4.35-4.52c0-2.8-1.98-4.52-4.35-4.52C209.94,108.09,208.04,109.77,208.04,112.61z"></path> <path class="st3" d="M242.25,120.27c-0.73,2.24-3.44,3.4-6.07,3.4c-5.76,0-10.15-4.13-10.15-11.19c0-6.5,4.56-11.1,10.02-11.1 c2.92,0,5.16,1.72,5.81,3.4v-2.62c0-0.39,0.08-0.52,0.34-0.52c2.45,0,4.17,0,6.63,0c0.22,0,0.3,0.17,0.3,0.39 c0,8.26,0,12.82,0,20.73c0,0.47-0.13,0.6-0.34,0.6c-1.16,0-5.42,0-6.11,0c-0.3,0-0.43-0.17-0.43-0.39V120.27z M233.17,112.7 c0,2.62,1.98,4.43,4.39,4.43c2.36,0,4.3-1.81,4.3-4.52c0-2.84-1.94-4.52-4.3-4.52C234.85,108.09,233.17,110.03,233.17,112.7z"></path> <path class="st3" d="M272.49,105.13c0.73-2.62,3.44-4.13,6.5-4.13c3.44,0,6.8,1.29,6.8,6.88v14.84c0,0.52-0.04,0.64-0.39,0.64 c-2.37,0-4.13,0-6.54,0c-0.26,0-0.39,0-0.39-0.47v-12.3c0-2.06-0.82-3.36-2.71-3.36c-1.55,0-2.67,1.03-2.92,1.89v13.59 c0,0.52-0.04,0.64-0.39,0.64c-2.37,0-4.13,0-6.54,0c-0.26,0-0.39,0-0.39-0.47v-12.3c0-2.36-1.2-3.36-2.71-3.36 c-1.55,0-2.75,1.12-2.92,1.89v13.77c0,0.39-0.04,0.47-0.3,0.47c-2.28,0-4.26,0-6.67,0c-0.3,0-0.34,0-0.34-0.6 c0-7.91,0-12.65,0-20.61c0-0.52,0-0.52,0.3-0.52c2.32,0,4.17,0,6.41,0c0.34,0,0.39,0,0.39,0.52v2.97c0.9-2.5,3.31-4.13,6.37-4.13 C269.48,101,271.59,102.2,272.49,105.13z"></path> <path class="st3" d="M304.16,120.27c-0.73,2.24-3.44,3.4-6.06,3.4c-5.77,0-10.15-4.13-10.15-11.19c0-6.5,4.56-11.1,10.02-11.1 c2.92,0,5.16,1.72,5.81,3.4v-2.62c0-0.39,0.09-0.52,0.34-0.52c2.45,0,4.17,0,6.62,0c0.22,0,0.3,0.17,0.3,0.39 c0,8.26,0,12.82,0,20.73c0,0.47-0.13,0.6-0.34,0.6c-1.16,0-5.42,0-6.11,0c-0.3,0-0.43-0.17-0.43-0.39V120.27z M295.09,112.7 c0,2.62,1.98,4.43,4.39,4.43c2.37,0,4.3-1.81,4.3-4.52c0-2.84-1.94-4.52-4.3-4.52C296.76,108.09,295.09,110.03,295.09,112.7z"></path> </g> </g> </g> </svg> 