<?xml version="1.0" encoding="UTF-8"?>
<svg xmlns="http://www.w3.org/2000/svg" width="150" height="84.954" viewBox="0 0 150 84.954">
  <g id="Group_1" data-name="Group 1" transform="translate(0 -2.035)">
    <path id="Path_1" data-name="Path 1" d="M8.776,13.146v5.908a3.025,3.025,0,0,1-.921,2.329,3.552,3.552,0,0,1-2.517.857,3.592,3.592,0,0,1-2.495-.832A2.974,2.974,0,0,1,1.9,19.122V13.146H3.749v5.92a1.708,1.708,0,0,0,.422,1.284,1.618,1.618,0,0,0,1.167.4q1.559,0,1.584-1.638v-5.97Z" transform="translate(-1.009 -5.899)" fill="#ea3523"/>
    <path id="Path_2" data-name="Path 2" d="M21.136,17.919l.055.77a2.327,2.327,0,0,1,1.916-.893,1.934,1.934,0,0,1,1.577.622,2.9,2.9,0,0,1,.53,1.86v4.306H23.434V20.312a1.16,1.16,0,0,0-.246-.824,1.1,1.1,0,0,0-.819-.256,1.225,1.225,0,0,0-1.128.642v4.711h-1.78V17.919Z" transform="translate(-10.333 -8.368)" fill="#ea3523"/>
    <path id="Path_3" data-name="Path 3" d="M34.578,13.342a.877.877,0,0,1,.268-.659,1.156,1.156,0,0,1,1.457,0,.941.941,0,0,1,0,1.325,1.142,1.142,0,0,1-1.448,0A.875.875,0,0,1,34.578,13.342Zm1.891,8.391H34.683V15.067h1.787Z" transform="translate(-18.359 -5.516)" fill="#ea3523"/>
    <path id="Path_4" data-name="Path 4" d="M43.163,14.565V16.2H44.3V17.51h-1.14v3.327a.794.794,0,0,0,.142.53.712.712,0,0,0,.542.16,2.85,2.85,0,0,0,.523-.043v1.349a3.658,3.658,0,0,1-1.078.16,1.7,1.7,0,0,1-1.91-1.891V17.51h-.973V16.2h.973V14.565Z" transform="translate(-21.455 -6.653)" fill="#ea3523"/>
    <path id="Path_5" data-name="Path 5" d="M53.62,24.708a3.271,3.271,0,0,1-2.387-.9,3.2,3.2,0,0,1-.921-2.4v-.173a4.023,4.023,0,0,1,.388-1.8,2.849,2.849,0,0,1,1.1-1.22,3.088,3.088,0,0,1,1.623-.428,2.765,2.765,0,0,1,2.153.862,3.506,3.506,0,0,1,.786,2.446v.727H52.117a1.656,1.656,0,0,0,.521,1.047,1.575,1.575,0,0,0,1.1.394,1.921,1.921,0,0,0,1.607-.746l.875.98a2.673,2.673,0,0,1-1.084.884A3.557,3.557,0,0,1,53.62,24.708Zm-.2-5.477a1.114,1.114,0,0,0-.86.359,1.858,1.858,0,0,0-.422,1.027h2.477v-.143a1.329,1.329,0,0,0-.32-.919A1.148,1.148,0,0,0,53.417,19.231Z" transform="translate(-26.713 -8.368)" fill="#ea3523"/>
    <path id="Path_6" data-name="Path 6" d="M64.773,18.176a4.015,4.015,0,0,1,.7-2.483,2.268,2.268,0,0,1,1.913-.924,2.041,2.041,0,0,1,1.608.727v-3.4h1.787v9.463H69.171l-.086-.708a2.1,2.1,0,0,1-1.713.832,2.264,2.264,0,0,1-1.888-.927A4.147,4.147,0,0,1,64.773,18.176Zm1.78.127a2.647,2.647,0,0,0,.326,1.442,1.064,1.064,0,0,0,.949.5,1.191,1.191,0,0,0,1.164-.7V16.9a1.174,1.174,0,0,0-1.152-.7Q66.553,16.2,66.553,18.3Z" transform="translate(-35.062 -5.341)" fill="#ea3523"/>
    <path id="Path_7" data-name="Path 7" d="M93.792,19.528,95,13.146h1.842l-1.99,8.97H92.99l-1.46-6-1.46,6H88.21l-1.99-8.97h1.842l1.213,6.37,1.479-6.37h1.565Z" transform="translate(-46.7 -5.899)" fill="#ea3523"/>
    <path id="Path_8" data-name="Path 8" d="M113.87,24.585a1.966,1.966,0,0,1-.178-.6,2.156,2.156,0,0,1-1.682.721,2.366,2.366,0,0,1-1.623-.567,1.822,1.822,0,0,1-.644-1.429,1.884,1.884,0,0,1,.785-1.626,3.873,3.873,0,0,1,2.27-.573h.819v-.382a1.1,1.1,0,0,0-.237-.739.933.933,0,0,0-.748-.277,1.059,1.059,0,0,0-.705.216.732.732,0,0,0-.256.591h-1.781a1.79,1.79,0,0,1,.357-1.072,2.363,2.363,0,0,1,1.01-.773,3.685,3.685,0,0,1,1.466-.28,2.909,2.909,0,0,1,1.956.619,2.167,2.167,0,0,1,.724,1.741v2.889a3.187,3.187,0,0,0,.265,1.435v.1ZM112.4,23.346a1.536,1.536,0,0,0,.727-.175,1.156,1.156,0,0,0,.493-.471V21.554h-.665q-1.337,0-1.423.924l-.007.105a.712.712,0,0,0,.235.548A.907.907,0,0,0,112.4,23.346Z" transform="translate(-59.403 -8.368)" fill="#ea3523"/>
    <path id="Path_9" data-name="Path 9" d="M126.267,22.2l1.232-4.146h1.91l-2.68,7.7-.148.351a2.032,2.032,0,0,1-1.971,1.306,2.812,2.812,0,0,1-.789-.117V25.95l.271.006a1.463,1.463,0,0,0,.755-.154,1.008,1.008,0,0,0,.391-.511l.21-.548-2.335-6.684h1.916Z" transform="translate(-66.644 -8.507)" fill="#ea3523"/>
    <path id="Path_10" data-name="Path 10" d="M0,53.514H5.808V56.9a9.6,9.6,0,0,1,2.53-3.013,5.225,5.225,0,0,1,3.08-.9,4.524,4.524,0,0,1,3.072.983A7,7,0,0,1,16.34,56.9a10.9,10.9,0,0,1,2.675-3.09A5.188,5.188,0,0,1,22,52.99a4.635,4.635,0,0,1,4.081,2.216q1.467,2.216,1.467,6.933V76.7H21.308V63.493a4.95,4.95,0,0,0-.428-2.337q-.627-1.2-1.56-1.2a2.01,2.01,0,0,0-1.773,1.136,7.454,7.454,0,0,0-.673,3.646V76.7H10.639V63.93a11.347,11.347,0,0,0-.123-2.075,3.046,3.046,0,0,0-.687-1.408,1.509,1.509,0,0,0-1.147-.535,2.02,2.02,0,0,0-1.758,1.157,7.806,7.806,0,0,0-.688,3.8V76.7H0Z" transform="translate(0 -27.752)" fill="#004598"/>
    <path id="Path_11" data-name="Path 11" d="M83.778,67.314H71.306a7.369,7.369,0,0,0,.81,3.188,2.681,2.681,0,0,0,2.354,1.507,2.761,2.761,0,0,0,1.743-.655A5.153,5.153,0,0,0,77.3,69.891l6.13.808a11.591,11.591,0,0,1-3.393,5.011,9.247,9.247,0,0,1-5.7,1.518,8.7,8.7,0,0,1-5.075-1.3A9.417,9.417,0,0,1,66.193,71.8a16.738,16.738,0,0,1-1.215-6.649,14.646,14.646,0,0,1,2.438-8.8,7.857,7.857,0,0,1,6.733-3.363,9.006,9.006,0,0,1,5.5,1.507,9.274,9.274,0,0,1,3.072,4.367,21.917,21.917,0,0,1,1.054,7.446ZM77.45,63.056a7.53,7.53,0,0,0-.97-3.691,2.425,2.425,0,0,0-2.071-1.114,2.659,2.659,0,0,0-2.369,1.682,8.033,8.033,0,0,0-.719,3.123Z" transform="translate(-35.237 -27.758)" fill="#004598"/>
    <path id="Path_12" data-name="Path 12" d="M115.959,61.026l-5.946-.9a12.127,12.127,0,0,1,.97-3.5,6.465,6.465,0,0,1,1.827-2.216,6.162,6.162,0,0,1,2.354-1.048,13.433,13.433,0,0,1,3.24-.371,18.246,18.246,0,0,1,4.494.447,5.258,5.258,0,0,1,2.827,1.867,7.266,7.266,0,0,1,1.253,2.784,13.94,13.94,0,0,1,.459,3.439V71.769a17.568,17.568,0,0,0,.145,2.566,14.922,14.922,0,0,0,.634,2.369h-5.839a10.459,10.459,0,0,1-.459-1.365,14.106,14.106,0,0,1-.214-1.474,8.683,8.683,0,0,1-2.43,2.4,7.491,7.491,0,0,1-3.836.961,5.262,5.262,0,0,1-4.41-1.921,7.448,7.448,0,0,1-1.506-4.739,7.952,7.952,0,0,1,1.085-4.345,6.668,6.668,0,0,1,4-2.533q3.5-1,4.54-1.408a17.234,17.234,0,0,0,2.2-1.059,4.084,4.084,0,0,0-.474-2.293,1.923,1.923,0,0,0-1.666-.655,3.3,3.3,0,0,0-2.293.7A4.136,4.136,0,0,0,115.959,61.026Zm5.4,4.673a23.313,23.313,0,0,1-2.675,1.157,5.468,5.468,0,0,0-2.4,1.419,2.978,2.978,0,0,0-.008,3.352,1.782,1.782,0,0,0,1.506.666,3.022,3.022,0,0,0,1.933-.72,3.952,3.952,0,0,0,1.269-1.758,8.091,8.091,0,0,0,.374-2.7Z" transform="translate(-59.393 -27.758)" fill="#004598"/>
    <path id="Path_13" data-name="Path 13" d="M175.578,70.262l6.175-.83a4.7,4.7,0,0,0,1.07,2.249A2.838,2.838,0,0,0,186.6,71.6a1.986,1.986,0,0,0,.535-1.417,1.742,1.742,0,0,0-.7-1.483,9.845,9.845,0,0,0-2.675-.915,21.223,21.223,0,0,1-4.5-1.494,5.4,5.4,0,0,1-2.124-2.323,8.66,8.66,0,0,1,.069-7.679,5.955,5.955,0,0,1,2.568-2.476,9.893,9.893,0,0,1,4.387-.818,10.884,10.884,0,0,1,4.287.633,5.652,5.652,0,0,1,2.308,1.965,11.684,11.684,0,0,1,1.536,3.6l-5.9.83a3.128,3.128,0,0,0-.764-1.637,2.477,2.477,0,0,0-1.773-.7,1.974,1.974,0,0,0-1.536.534,1.869,1.869,0,0,0-.481,1.3,1.479,1.479,0,0,0,.611,1.287,7.45,7.45,0,0,0,2.66.785,13.709,13.709,0,0,1,4.616,1.4,5.841,5.841,0,0,1,2.316,2.552,8.256,8.256,0,0,1,.8,3.643,9.468,9.468,0,0,1-.849,3.9,6.688,6.688,0,0,1-2.675,3.021,9.456,9.456,0,0,1-4.975,1.123q-4.448,0-6.336-1.812A8.837,8.837,0,0,1,175.578,70.262Z" transform="translate(-95.191 -27.758)" fill="#004598"/>
    <path id="Path_14" data-name="Path 14" d="M68.474,125.421h6.015l2.6,14.6,3.293-14.6h5.622l3.433,14.637,2.618-14.637h5.979l-5.98,23.19H86.52l-3.288-13.953-3.178,13.953H74.493Z" transform="translate(-37.2 -67.353)" fill="#004598"/>
    <path id="Path_15" data-name="Path 15" d="M136.483,106.615H142.7v11.791a9.406,9.406,0,0,1,2.522-2.686,5.356,5.356,0,0,1,2.965-.808,4.559,4.559,0,0,1,4,2.206q1.459,2.206,1.459,6.769v14.739H147.4V125.874a6.167,6.167,0,0,0-.565-3.09,1.778,1.778,0,0,0-1.59-.907,2.086,2.086,0,0,0-1.834,1.223,9.59,9.59,0,0,0-.7,4.389v11.136h-6.221Z" transform="translate(-73.994 -57.368)" fill="#004598"/>
    <path id="Path_16" data-name="Path 16" d="M198.135,138.629H185.662a7.382,7.382,0,0,0,.811,3.188,2.681,2.681,0,0,0,2.354,1.506,2.761,2.761,0,0,0,1.742-.655,5.16,5.16,0,0,0,1.085-1.463l6.129.808a11.6,11.6,0,0,1-3.393,5.011,9.247,9.247,0,0,1-5.7,1.517,8.7,8.7,0,0,1-5.075-1.3,9.415,9.415,0,0,1-3.064-4.127,16.746,16.746,0,0,1-1.215-6.649,14.652,14.652,0,0,1,2.438-8.8,7.86,7.86,0,0,1,6.733-3.363,9.011,9.011,0,0,1,5.5,1.507,9.274,9.274,0,0,1,3.072,4.367,21.914,21.914,0,0,1,1.055,7.446Zm-6.328-4.258a7.534,7.534,0,0,0-.971-3.69,2.424,2.424,0,0,0-2.071-1.114,2.658,2.658,0,0,0-2.369,1.681,8.027,8.027,0,0,0-.718,3.123Z" transform="translate(-97.251 -66.76)" fill="#004598"/>
    <path id="Path_17" data-name="Path 17" d="M242.649,138.629H230.176a7.375,7.375,0,0,0,.811,3.188,2.68,2.68,0,0,0,2.354,1.506,2.76,2.76,0,0,0,1.742-.655,5.16,5.16,0,0,0,1.086-1.463l6.129.808a11.6,11.6,0,0,1-3.393,5.011,9.248,9.248,0,0,1-5.7,1.517,8.7,8.7,0,0,1-5.075-1.3,9.415,9.415,0,0,1-3.065-4.127,16.755,16.755,0,0,1-1.215-6.649,14.649,14.649,0,0,1,2.438-8.8,7.859,7.859,0,0,1,6.733-3.363,9.009,9.009,0,0,1,5.5,1.507,9.275,9.275,0,0,1,3.072,4.367,21.926,21.926,0,0,1,1.055,7.446Zm-6.329-4.258a7.535,7.535,0,0,0-.97-3.69,2.424,2.424,0,0,0-2.071-1.114,2.659,2.659,0,0,0-2.369,1.681,8.028,8.028,0,0,0-.718,3.123Z" transform="translate(-121.39 -66.76)" fill="#004598"/>
    <path id="Path_18" data-name="Path 18" d="M289.933,141.576l6.175-.829a4.688,4.688,0,0,0,1.07,2.249,2.838,2.838,0,0,0,3.775-.086,1.982,1.982,0,0,0,.535-1.417,1.74,1.74,0,0,0-.7-1.483,9.851,9.851,0,0,0-2.675-.916,21.189,21.189,0,0,1-4.5-1.494,5.393,5.393,0,0,1-2.125-2.323,8.662,8.662,0,0,1,.069-7.679,5.957,5.957,0,0,1,2.568-2.476,9.893,9.893,0,0,1,4.387-.819,10.9,10.9,0,0,1,4.288.633A5.652,5.652,0,0,1,305.1,126.9a11.679,11.679,0,0,1,1.537,3.6l-5.9.83a3.13,3.13,0,0,0-.764-1.637,2.48,2.48,0,0,0-1.774-.7,1.974,1.974,0,0,0-1.536.534,1.869,1.869,0,0,0-.481,1.3,1.477,1.477,0,0,0,.611,1.287,7.431,7.431,0,0,0,2.66.785,13.723,13.723,0,0,1,4.616,1.4,5.84,5.84,0,0,1,2.316,2.552,8.247,8.247,0,0,1,.8,3.643,9.472,9.472,0,0,1-.849,3.9,6.688,6.688,0,0,1-2.675,3.021,9.46,9.46,0,0,1-4.975,1.123q-4.448,0-6.336-1.812A8.838,8.838,0,0,1,289.933,141.576Z" transform="translate(-157.19 -66.76)" fill="#004598"/>
    <path id="Path_19" data-name="Path 19" d="M161.715,2.035c-.141,0-.217.989-.195,6.523.011,2.868.2,7.226.2,7.226a.654.654,0,0,1-1.309,0s-.076-2.356-.1-4.834c-.057-5.877-.291-8.914-.561-8.915s-.446,1.909-.5,7.533c-.017,1.546-.072,6.216-.072,6.216a.654.654,0,1,1-1.307,0s-.054-4.667-.069-6.214c-.061-5.626-.251-7.535-.507-7.533s-.5,3.037-.559,8.913c-.024,2.48-.1,4.835-.1,4.835a.654.654,0,1,1-1.307,0s.183-4.357.2-7.227c.023-5.533-.054-6.522-.195-6.522-.16,0-.544,1.527-.846,5.837-.19,2.718-.366,6.157-.366,9.023,0,.12,0,.228,0,.321,0,.882,1.9,2.229,3.2,3.048,0,2.206-.72,8.813-.743,10.288-.093,6.026,0,19.8,0,21.062,0,1.766.645,3.074,1.949,3.073s1.95-1.041,1.95-2.807c0-1.259.141-15.065.059-21.239-.02-1.475-.8-8.171-.8-10.376,1.306-.821,3.206-2.166,3.206-3.051,0-.092,0-.2,0-.32,0-2.865-.175-6.308-.366-9.026C162.26,3.562,161.876,2.035,161.715,2.035Z" transform="translate(-83.448 0)" fill="#ea3523"/>
    <path id="Path_20" data-name="Path 20" d="M277.669,74.826c-.141,0-.218.989-.195,6.523.01,2.868.2,7.226.2,7.226a.654.654,0,0,1-1.309,0s-.076-2.356-.1-4.834c-.057-5.877-.291-8.914-.561-8.914s-.446,1.909-.5,7.533c-.017,1.546-.072,6.216-.072,6.216a.654.654,0,1,1-1.307,0s-.053-4.667-.069-6.214c-.061-5.626-.251-7.535-.507-7.533s-.5,3.037-.559,8.913c-.024,2.48-.1,4.835-.1,4.835a.654.654,0,0,1-1.307,0s.183-4.357.2-7.227c.023-5.534-.054-6.522-.195-6.522-.16,0-.544,1.527-.846,5.837-.19,2.719-.366,6.157-.366,9.024,0,.12,0,.228,0,.321,0,.883,1.9,2.229,3.2,3.049,0,2.206-.72,8.813-.743,10.288-.093,6.026,0,19.8,0,21.062,0,1.766.645,3.073,1.949,3.073s1.95-1.041,1.95-2.807c0-1.259.141-15.065.059-21.239-.02-1.476-.8-8.171-.8-10.376,1.306-.821,3.206-2.166,3.206-3.05,0-.092,0-.2,0-.32,0-2.865-.175-6.308-.366-9.026C278.214,76.353,277.83,74.826,277.669,74.826Z" transform="translate(-146.638 -40.49)" fill="#ea3523"/>
    <g id="Group_3" data-name="Group 3" transform="translate(0.107 64.407)">
      <g id="Group_1-2" data-name="Group 1" transform="translate(0 3.3)">
        <path id="Path_21" data-name="Path 21" d="M47.077,146.189a1.092,1.092,0,0,0-.686-.219,1.476,1.476,0,0,0-.921.312,1.57,1.57,0,0,0-.559.828c-.018.06-.032.14-.046.218h2.707a2.709,2.709,0,0,0-.084-.527A1.216,1.216,0,0,0,47.077,146.189Z" transform="translate(-23.928 -145.97)" fill="#004598"/>
        <path id="Path_22" data-name="Path 22" d="M15.6,146.2a1.61,1.61,0,0,0-1.3.656,2.125,2.125,0,0,0-.317.593h3.232a2.136,2.136,0,0,0-.316-.593A1.6,1.6,0,0,0,15.6,146.2Z" transform="translate(-7.529 -146.094)" fill="#ea3523"/>
        <path id="Path_23" data-name="Path 23" d="M14.285,154.966a1.614,1.614,0,0,0,2.6,0,2.135,2.135,0,0,0,.324-.618H13.959A2.141,2.141,0,0,0,14.285,154.966Z" transform="translate(-7.519 -150.418)" fill="#ea3523"/>
        <path id="Path_24" data-name="Path 24" d="M25.294,148.867a5.094,5.094,0,0,1,0,2.571h7.1v-2.571Z" transform="translate(-13.535 -147.508)" fill="#004598"/>
        <path id="Path_25" data-name="Path 25" d="M4.594,148.867H.229v2.571H4.582a6.641,6.641,0,0,1-.139-1.39A4.807,4.807,0,0,1,4.594,148.867Z" transform="translate(-0.229 -147.508)" fill="#004598"/>
        <path id="Path_26" data-name="Path 26" d="M13.53,150.165a3.728,3.728,0,0,0,.2,1.273H16.98a3.816,3.816,0,0,0,.2-1.288,3.656,3.656,0,0,0-.208-1.282H13.741A3.692,3.692,0,0,0,13.53,150.165Z" transform="translate(-7.291 -147.508)" fill="#ea3523"/>
        <path id="Path_27" data-name="Path 27" d="M47.453,148.867H44.746a9.915,9.915,0,0,0-.105,1.689v.882H47.5v-1.359C47.5,149.568,47.481,149.172,47.453,148.867Z" transform="translate(-23.809 -147.508)" fill="#004598"/>
        <path id="Path_28" data-name="Path 28" d="M59.548,148.867H54.932c0,.1,0,.187,0,.29v2.281h4.612Z" transform="translate(-29.273 -147.508)" fill="#004598"/>
      </g>
      <g id="Group_2" data-name="Group 2" transform="translate(2.155)">
        <path id="Path_29" data-name="Path 29" d="M10.769,138.934a5.945,5.945,0,1,0,5.944,5.944A5.945,5.945,0,0,0,10.769,138.934ZM13.5,147.99a3.517,3.517,0,0,1-2.753,1.238,3.989,3.989,0,0,1-1.959-.516A3.364,3.364,0,0,1,7.368,147.2a5.5,5.5,0,0,1-.485-2.426,4.888,4.888,0,0,1,.485-2.118,3.554,3.554,0,0,1,1.375-1.563,3.761,3.761,0,0,1,1.987-.539,3.543,3.543,0,0,1,2.778,1.223,4.49,4.49,0,0,1,1.083,3.091A4.546,4.546,0,0,1,13.5,147.99Z" transform="translate(-4.824 -138.934)" fill="#ea3523"/>
        <path id="Path_30" data-name="Path 30" d="M40.917,138.934a5.945,5.945,0,1,0,5.945,5.944A5.944,5.944,0,0,0,40.917,138.934Zm3.422,10.106H42.363v-4.235a7.246,7.246,0,0,0-.127-1.739,1.216,1.216,0,0,0-.411-.614,1.092,1.092,0,0,0-.686-.219,1.476,1.476,0,0,0-.921.312,1.57,1.57,0,0,0-.559.828,7.927,7.927,0,0,0-.151,1.907v3.759H37.531v-8.3h1.836v1.219a2.908,2.908,0,0,1,2.462-1.406,2.706,2.706,0,0,1,1.2.262,2.034,2.034,0,0,1,.819.668,2.547,2.547,0,0,1,.387.922,7.6,7.6,0,0,1,.109,1.477Z" transform="translate(-20.831 -138.934)" fill="#ea3523"/>
      </g>
    </g>
  </g>
</svg>
