<svg width="227" height="45" viewBox="0 0 227 45" fill="none" xmlns="http://www.w3.org/2000/svg">
<path d="M0 0.486328H7.02989V19.9212H0V0.486328Z" fill="white"/>
<path d="M25.4845 17.1809L24.2633 15.1454C23.8957 14.6174 23.4041 14.1876 22.8317 13.8938C22.2593 13.6001 21.6235 13.4513 20.9801 13.4605H16.8338V19.9212H9.74365V0.486328H26.0801C31.2931 0.486328 34.2785 2.74795 34.2785 6.64925C34.2785 9.55167 32.2166 11.5871 28.6584 12.2656V12.292C29.3692 12.5879 29.9682 13.1012 30.3696 13.7583L31.753 15.8503C31.9234 16.1101 32.1579 16.3215 32.4339 16.4642C32.71 16.6068 33.0181 16.6758 33.3286 16.6645C33.871 16.648 34.3864 16.424 34.7685 16.0388L35.9596 18.8884C34.9042 19.8119 32.7858 20.464 30.9954 20.464C28.0628 20.464 26.5965 18.7791 25.4845 17.1809ZM23.9768 9.47251C26.0123 9.47251 27.2071 8.5754 27.2071 7.08273C27.2071 5.59006 26.0123 4.66656 23.9768 4.66656H16.8263V9.47251H23.9768Z" fill="white"/>
<path d="M37.3169 0.486328H46.4916L53.2199 13.6791H53.2764L59.9256 0.486328H69.2058V19.9212H62.5302V7.73483H62.4624L56.3824 19.9212H50.3438L44.049 7.73483H43.9925V19.9212H37.3169V0.486328Z" fill="white"/>
<path d="M71.9194 0.486328H78.9493V19.9212H71.9194V0.486328Z" fill="white"/>
<path d="M81.6636 0.486328H90.1823L100.635 13.1627H100.661V0.486328H107.337V19.9212H98.8444L88.3655 7.08273H88.3391V19.9212H81.6636V0.486328Z" fill="white"/>
<path d="M109.58 10.6108C109.58 4.2594 115.117 0 123.368 0C129.584 0 134.442 2.55187 135.257 6.32124L128.66 7.45205C128.117 5.87646 125.92 4.79088 123.342 4.79088C119.38 4.79088 116.666 7.0525 116.666 10.3808C116.666 13.6112 119.704 15.7824 124.239 15.7824C127.767 15.7824 130.481 14.3198 130.726 12.2806H120.307V8.69971H137.571V19.9098H131.981L131.71 16.7322H131.683C129.798 18.9599 126.172 20.3998 122.154 20.3998C114.638 20.4112 109.58 16.4458 109.58 10.6108Z" fill="white"/>
<path d="M139.877 0.486328H146.96V7.38051H157.68V0.486328H164.763V19.9212H157.68V12.1865H146.96V19.9212H139.877V0.486328Z" fill="white"/>
<path d="M175.837 0.486328H184.058L193.531 19.9212H186.177L184.669 16.5288H174.978L173.47 19.9212H166.143L175.837 0.486328ZM183.301 12.5483L179.878 4.87011H179.825L176.35 12.5257L183.301 12.5483Z" fill="white"/>
<path d="M194.914 0.486328H204.089L210.817 13.6791H210.874L217.523 0.486328H226.807V19.9212H220.127V7.73483H220.075L213.991 19.9212H207.96L201.665 7.73483H201.608V19.9212H194.933L194.914 0.486328Z" fill="white"/>
<path d="M0.254883 24.6101H7.28477V44.045H0.254883V24.6101Z" fill="#CA1D48"/>
<path d="M9.99512 24.6101H18.5177L28.9664 37.2865H28.9928V24.6101H35.6721V44.045H27.1797L16.7008 31.2065H16.6744V44.045H9.99512V24.6101Z" fill="#CA1D48"/>
<path d="M37.9258 34.3277C37.9258 28.0856 43.1087 24.124 51.2769 24.124C57.4926 24.124 62.2722 26.8078 63.5726 31.071L57.142 32.4279C56.4899 30.3925 54.2623 29.1184 51.4692 29.1184C47.5339 29.1184 45.0084 31.1539 45.0084 34.3277C45.0084 37.5015 47.8317 39.5408 52.2833 39.5408C55.7851 39.5408 58.3143 38.033 58.9061 35.6847L65.4196 36.8532C64.3868 41.5461 59.2303 44.5352 52.0911 44.5352C43.4328 44.5352 37.9258 40.762 37.9258 34.3277Z" fill="#CA1D48"/>
<path d="M67.2065 24.6101H74.293V38.8621H86.0986V44.045H67.2065V24.6101Z" fill="#CA1D48"/>
<path d="M86.9917 35.089V24.6101H94.0743V34.7083C94.0743 37.8557 96.1663 39.4049 99.506 39.4049C102.846 39.4049 104.904 37.8557 104.904 34.7083V24.6101H111.964V35.089C111.964 41.1689 107.35 44.535 99.4759 44.535C91.6016 44.535 86.9917 41.1727 86.9917 35.089Z" fill="#CA1D48"/>
<path d="M114.407 24.6101H128.221C135.76 24.6101 139.974 28.0855 139.974 34.3275C139.974 40.5696 135.768 44.045 128.221 44.045H114.407V24.6101ZM127.245 39.239C130.992 39.239 133.107 37.475 133.107 34.3389C133.107 31.2027 130.992 29.401 127.245 29.401H121.297V39.2503L127.245 39.239Z" fill="#CA1D48"/>
<path d="M142.221 24.6101H162.715V29.009H149.085V32.2657H161.625V36.0351H149.085V39.665H162.982V44.0638H142.221V24.6101Z" fill="#CA1D48"/>
<path d="M164.882 24.6101H178.697C186.236 24.6101 190.45 28.0855 190.45 34.3275C190.45 40.5696 186.243 44.045 178.697 44.045H164.882V24.6101ZM177.732 39.239C181.479 39.239 183.593 37.475 183.593 34.3389C183.593 31.2027 181.479 29.401 177.732 29.401H171.777V39.2503L177.732 39.239Z" fill="#CA1D48"/>
</svg>
